<svg height="56" viewBox="0 0 196 56" width="196" xmlns="http://www.w3.org/2000/svg"><path d="m0 0h196v56h-196z" opacity="0"/><g fill-rule="evenodd"><path d="m149.365 23.065c0-.217-.031-.248-.217-.248-.155 0-1.085.062-3.938.062h-2.17v-2.325c1.271-.248 2.542-.527 3.907-.868a8.455 8.455 0 0 1 1.209-.217.445.445 0 0 0 .527-.279.581.581 0 0 0 -.248-.434 11.422 11.422 0 0 0 -1.209-1.023 5.079 5.079 0 0 1 -1.427.589 50.4 50.4 0 0 1 -10.666 1.612 3.626 3.626 0 0 1 .682 1.085c.186.434.248.4.807.372 1.7-.155 3.224-.341 4.743-.558v2.046h-2.635c-2.822 0-3.783-.062-3.938-.062-.217 0-.248.031-.248.248v1.147c0 .217.031.248.248.248.155 0 1.116-.062 3.938-.062h2.635v1.984h-1.519c-2.635 0-3.5-.062-3.69-.062-.217 0-.248.031-.248.248 0 .155.062.775.062 2.574v3.008c0 1.736-.062 2.356-.062 2.542 0 .217.031.248.248.248.187 0 1.055-.062 3.69-.062h1.519v1.984h-2.165c-2.728 0-3.6-.062-3.783-.062-.217 0-.248.031-.248.248v1.116c0 .217.031.248.248.248.186 0 1.055-.062 3.783-.062h2.17v2.45c-1.4.155-2.7.279-3.782.372a28.678 28.678 0 0 1 -3.194.093c.124.62.31 1.3.434 1.767a.414.414 0 0 0 .372.372.954.954 0 0 0 .372-.155 4.673 4.673 0 0 1 1.21-.248c3.782-.434 7.472-.961 11.069-1.674.62-.124.62-.093.682-.744a4.358 4.358 0 0 1 .217-.93c-1.8.372-3.783.682-5.705.93v-2.232h1.643c2.729 0 3.6.062 3.783.062.217 0 .248-.031.248-.248v-1.116c0-.217-.031-.248-.248-.248-.186 0-1.054.062-3.783.062h-1.648v-1.984h1.674c2.884 0 3.5.062 3.69.062.217 0 .248-.031.248-.248 0-.155-.062-.806-.062-2.542v-3.039c0-1.8.062-2.387.062-2.543 0-.217-.031-.248-.248-.248-.186 0-1.054.062-3.69.062h-1.674v-1.983h2.17c2.853 0 3.814.062 3.969.062.186 0 .186-.031.186-.248zm-2.387 10.511h-3.938v-2.356h3.938zm-5.613 0h-3.751v-2.356h3.751zm5.613-3.628h-3.938v-2.232h3.938zm-5.613 0h-3.751v-2.232h3.751zm14.17-5.488c.031-1.085.031-2.2.031-3.287a11.766 11.766 0 0 1 .186-2.884 1.96 1.96 0 0 0 .155-.651.34.34 0 0 0 -.341-.279 13.814 13.814 0 0 0 -2.015-.217 20.741 20.741 0 0 1 .217 3.814c0 1.147-.031 2.325-.062 3.5h-.372c-2.419 0-3.163-.062-3.318-.062-.248 0-.279.031-.279.248v1.3c0 .217.031.248.279.248.155 0 .9-.062 3.318-.062h.31a41.061 41.061 0 0 1 -1.023 8.031c-1.117 4.062-2.822 7.193-6.326 9.395a3.382 3.382 0 0 1 1.241.837.76.76 0 0 0 .4.279.965.965 0 0 0 .464-.27c3.255-2.574 4.837-5.612 5.922-9.581a42.461 42.461 0 0 0 1.116-8.682h3.721a97.531 97.531 0 0 1 -.806 14.263c-.248 1.581-.744 2.139-1.768 2.139a16.532 16.532 0 0 1 -3.038-.279 3.642 3.642 0 0 1 .434 1.488c.031.341.031.5.558.527.651.031 1.333.062 2.2.062 1.923 0 2.977-.93 3.349-3.1a101.026 101.026 0 0 0 .9-13.8c0-.93 0-1.8.062-2.76a.227.227 0 0 0 -.279-.279c-.186 0-.961.062-3.411.062h-1.829zm36.8-5.643c0-.248-.031-.279-.248-.279-.186 0-1.147.062-4.124.062h-17.83c-2.946 0-3.938-.062-4.093-.062-.217 0-.248.031-.248.279v1.364c0 .186.031.217.248.217.155 0 1.147-.062 4.093-.062h7.876v4.064h-2.233c-2.821 0-3.783-.062-3.969-.062-.217 0-.248.031-.248.248 0 .155.062 1.023.062 3.411v6.666c0 2.356-.062 3.256-.062 3.411 0 .217.031.248.248.248.186 0 1.148-.062 3.969-.062h6.387c2.853 0 3.814.062 4 .062.217 0 .248-.031.248-.248 0-.155-.062-1.054-.062-3.411v-6.663c0-2.387.062-3.256.062-3.411 0-.217-.031-.248-.248-.248-.186 0-1.147.062-4 .062h-2.387v-4.066h8.185c2.977 0 3.938.062 4.124.062.217 0 .248-.031.248-.217v-1.364zm-7.751 17.89h-4.806v-4.867h4.806v4.868zm-6.573 0h-4.651v-4.867h4.651v4.868zm6.573-6.356h-4.806v-4.4h4.806zm-6.573 0h-4.651v-4.4h4.651zm11.749 10.977h-21.425v-13.271a10.544 10.544 0 0 1 .155-2.729 1.52 1.52 0 0 0 .217-.589.416.416 0 0 0 -.434-.341c-.713-.093-1.179-.124-1.954-.186a23.58 23.58 0 0 1 .186 3.752v10.728c0 3.938-.062 5.705-.062 5.891 0 .217.031.248.248.248h1.4c.217 0 .248-.031.248-.248v-1.55h21.421v1.55c0 .217.031.248.248.248h1.426c.217 0 .248-.031.248-.248 0-.155-.062-1.953-.062-5.953v-10.6c0-1.953.062-2.573.217-2.822a.755.755 0 0 0 .155-.465.382.382 0 0 0 -.4-.341c-.5-.062-1.085-.124-2.046-.186a21.978 21.978 0 0 1 .214 3.784z"/><path d="m113.064 44.063h12.078c-.407-.337-1.624-.375-3.713-4.5-.76-1.583-7.338-19.377-8.667-22.485-.877-2.052-.767-4.069.034-5.164h-11.34c.471.6 1.223 2.307-.166 5.474-1.547 3.528-3.658 9.048-3.925 9.75a44.351 44.351 0 0 0 -11.809 3.111l13.775-18.335h-22.872v7.957a12.372 12.372 0 0 1 3.895-1.381 27.324 27.324 0 0 1 4.856-.376c.363 0 .711.006 1.037.018l-14.058 18.83v-18.52c0-2.144.4-4.9 1.78-6.528h-10.507c1.373 1.581 1.348 3.654 1.483 6.569s.394 11.882.708 16.017c-.437-.9-.857-1.693-1.251-2.354-.708-1.187-8.744-14.176-8.81-14.282-1.139-1.623-2.373-4.14-1.637-5.95h-10.655c1.269 1.77 1.583 4.319 1.583 6.528v17.229c-1.106-3.017-5.46-14.852-7.083-18.593a6.039 6.039 0 0 1 0-5.164h-11.285c.967 1.505.469 3.807-.192 5.478-1.17 2.958-2.854 7.157-3.465 8.681a73.2 73.2 0 0 0 -14.058-.673v-7.19c.327-.023 1.309-.082 2.886-.082 1.151 0 2.389.031 3.679.092a19.906 19.906 0 0 1 7.093 1.531v-7.84h-22.204s1.583 1.7 1.583 6.456v19.24c0 4.757-1.583 6.456-1.583 6.456h10.133s-1.587-1.699-1.587-6.456v-5.456c1.595-.11 3.177-.166 4.706-.166a54.649 54.649 0 0 1 6.784.4c-.244.662-1.313 3.323-2.676 6.636a9.582 9.582 0 0 1 -3.911 5.041h11.941s-2.105-1.368-.259-6.409c.936-2.554 1.363-3.768 1.477-4.063 3.51.681 9.453 3.489 11.928 6.314a10.266 10.266 0 0 1 2.419 4.157h12.391c-.338-.483-1.545-2.135-1.616-6.153 0-.022-.476-14.293-.477-14.315.973 1.819 8.347 14 8.48 14.2 1.429 2.166 2.34 4.8 1.457 6.266h15.656l.037-.075c1.609-3.284 9.165-8.037 17.5-9.683-.172.458-.678 1.724-1.967 4.533-1.518 3.307-2.135 4.171-3.854 5.224h11.69c-1.735-1.275.682-8.547 1.762-10.8 1.237-.1 2.475-.144 3.68-.144a32.608 32.608 0 0 1 5.9.55c.745 1.955 1.166 3.111 1.474 3.878 1.091 2.722 1.536 5.493-.258 6.521zm-76.544-13.114a24.811 24.811 0 0 0 -4.371-2.187c-.958-.412-1.919-.779-2.89-1.107 1.559-4.187 2.109-5.646 2.772-7.947.946 2.579.558 1.592 4.489 11.241zm68.08-4.163a64.62 64.62 0 0 0 2.4-7.068c.237.655 1.84 5.072 2.773 7.407a29.435 29.435 0 0 0 -5.173-.339z" fill="#ee2737"/></g></svg>